<?xml version="1.0" encoding="UTF-8" standalone="no"?>
<svg
   width="500"
   height="500"
   version="1.1"
   id="svg4"
   sodipodi:docname="cmvnorm.svg"
   inkscape:version="1.1 (ce6663b3b7, 2021-05-25)"
   inkscape:export-filename="cmvnorm_icon.png"
   inkscape:export-xdpi="96"
   inkscape:export-ydpi="96"
   xmlns:inkscape="http://www.inkscape.org/namespaces/inkscape"
   xmlns:sodipodi="http://sodipodi.sourceforge.net/DTD/sodipodi-0.dtd"
   xmlns="http://www.w3.org/2000/svg"
   xmlns:svg="http://www.w3.org/2000/svg">
  <defs
     id="defs8" />
  <sodipodi:namedview
     id="namedview6"
     pagecolor="#7733ff"
     bordercolor="#666666"
     borderopacity="1.0"
     inkscape:pageshadow="2"
     inkscape:pageopacity="1"
     inkscape:pagecheckerboard="0"
     showgrid="false"
     inkscape:zoom="0.75236162"
     inkscape:cx="21.930943"
     inkscape:cy="250.54441"
     inkscape:window-width="1294"
     inkscape:window-height="704"
     inkscape:window-x="72"
     inkscape:window-y="27"
     inkscape:window-maximized="1"
     inkscape:current-layer="svg4" />
  <text
     xml:space="preserve"
     style="font-size:455.047px;line-height:1.25;font-family:'Noto Serif Myanmar';-inkscape-font-specification:'Noto Serif Myanmar';stroke-width:2.37004"
     x="120.50296"
     y="419.79803"
     id="text3792"
     transform="scale(1.0150741,0.98514975)"><tspan
       sodipodi:role="line"
       id="tspan3790"
       x="120.50296"
       y="419.79803"
       style="stroke-width:2.37004">2</tspan></text>
  <path
     style="color:#000000;fill:#7733ff;fill-opacity:1;stroke:#000000;stroke-width:3.78;stroke-miterlimit:4;stroke-dasharray:none;stroke-opacity:1"
     d="M 201.0615,6.562926 C 138.74324,19.119086 81.192844,55.373268 43.264364,112.34065 l -0.0152,0.023 -0.81213,1.22796 -0.0152,0.023 c -75.154963,114.39911 -43.34851074,268.59952 70.885936,343.88823 114.22881,75.285 268.3261,43.59864 343.81168,-70.53745 C 532.60495,272.8293 501.45006,118.62368 387.46226,42.974272 330.46555,5.147703 263.37977,-5.993236 201.0615,6.562926 Z m 7.26376,36.047005 C 261.2948,31.937441 318.33248,41.502609 367.00216,73.802844 458.9576,134.8302 487.56137,254.80092 436.07269,350.09002 L 84.222434,118.94182 C 116.24141,78.309944 160.6112,52.223528 208.32523,42.609937 Z M 63.897834,149.85838 415.74346,381.00352 C 348.37409,466.53085 226.18604,487.5843 133.66875,426.60875 41.330244,365.75104 12.294174,245.41028 63.897834,149.85838 Z"
     id="path10" />
</svg>
